<svg xmlns="http://www.w3.org/2000/svg" width="32" height="32" viewBox="0 0 32 32" fill="none">
    <path d="M27.1193 5.75973C27.0248 5.66817 26.9043 5.60798 26.7743 5.58737C26.6444 5.56675 26.5112 5.58671 26.3929 5.64453H20.5561C20.3864 5.64453 20.2236 5.71196 20.1036 5.83198C19.9836 5.95201 19.9161 6.11479 19.9161 6.28453C19.9161 6.45427 19.9836 6.61706 20.1036 6.73708C20.2236 6.8571 20.3864 6.92453 20.5561 6.92453H25.0873L17.1097 15.1325L11.5193 11.2221C11.3921 11.1333 11.2369 11.0938 11.0827 11.1109C10.9285 11.1279 10.7857 11.2005 10.6809 11.3149L4.85375 17.6605C4.7968 17.7225 4.75263 17.7951 4.72374 17.8742C4.69486 17.9532 4.68182 18.0372 4.68539 18.1213C4.69259 18.2911 4.76696 18.4511 4.89215 18.5661C5.01733 18.6811 5.18307 18.7417 5.3529 18.7345C5.52273 18.7273 5.68275 18.6529 5.79775 18.5277L11.2377 12.5917L16.8185 16.4957C16.9429 16.583 17.0942 16.6232 17.2455 16.6091C17.3967 16.595 17.538 16.5276 17.6441 16.4189L26.0281 7.80453V12.4125C26.0281 12.5823 26.0956 12.7451 26.2156 12.8651C26.3356 12.9851 26.4984 13.0525 26.6681 13.0525C26.8379 13.0525 27.0007 12.9851 27.1207 12.8651C27.2407 12.7451 27.3081 12.5823 27.3081 12.4125V6.30373C27.3214 6.20461 27.3112 6.10377 27.2784 6.0093C27.2456 5.91483 27.1911 5.82935 27.1193 5.75973Z" fill="#1A869C"/>
    <path d="M27.3111 25.7755V15.8107C27.3111 15.6409 27.2437 15.4781 27.1237 15.3581C27.0037 15.2381 26.8409 15.1707 26.6711 15.1707C26.5014 15.1707 26.3386 15.2381 26.2186 15.3581C26.0986 15.4781 26.0311 15.6409 26.0311 15.8107V25.7755C26.0311 25.9452 26.0986 26.108 26.2186 26.228C26.3386 26.348 26.5014 26.4155 26.6711 26.4155C26.8409 26.4155 27.0037 26.348 27.1237 26.228C27.2437 26.108 27.3111 25.9452 27.3111 25.7755Z" fill="#1A869C"/>
    <path d="M20.7799 25.7754V18.4154C20.7799 18.2457 20.7124 18.0829 20.5924 17.9628C20.4724 17.8428 20.3096 17.7754 20.1399 17.7754C19.9701 17.7754 19.8074 17.8428 19.6873 17.9628C19.5673 18.0829 19.4999 18.2457 19.4999 18.4154V25.7754C19.4999 25.9451 19.5673 26.1079 19.6873 26.2279C19.8074 26.348 19.9701 26.4154 20.1399 26.4154C20.3096 26.4154 20.4724 26.348 20.5924 26.2279C20.7124 26.1079 20.7799 25.9451 20.7799 25.7754Z" fill="#1A869C"/>
    <path d="M14.2461 25.7759V22.1439C14.2461 21.9742 14.1786 21.8114 14.0586 21.6914C13.9386 21.5713 13.7758 21.5039 13.6061 21.5039C13.4363 21.5039 13.2735 21.5713 13.1535 21.6914C13.0335 21.8114 12.9661 21.9742 12.9661 22.1439V25.7759C12.9661 25.9456 13.0335 26.1084 13.1535 26.2285C13.2735 26.3485 13.4363 26.4159 13.6061 26.4159C13.7758 26.4159 13.9386 26.3485 14.0586 26.2285C14.1786 26.1084 14.2461 25.9456 14.2461 25.7759Z" fill="#1A869C"/>
    <path d="M7.71091 25.7757V21.4173C7.71091 21.2476 7.64348 21.0848 7.52346 20.9648C7.40343 20.8448 7.24065 20.7773 7.07091 20.7773C6.90117 20.7773 6.73838 20.8448 6.61836 20.9648C6.49834 21.0848 6.43091 21.2476 6.43091 21.4173V25.7757C6.43091 25.9455 6.49834 26.1083 6.61836 26.2283C6.73838 26.3483 6.90117 26.4157 7.07091 26.4157C7.24065 26.4157 7.40343 26.3483 7.52346 26.2283C7.64348 26.1083 7.71091 25.9455 7.71091 25.7757Z" fill="#1A869C"/>
</svg>
