<svg xmlns="http://www.w3.org/2000/svg" width="32" height="32" viewBox="0 0 32 32" fill="none">
    <path fill-rule="evenodd" clip-rule="evenodd" d="M11.9999 6C8.68622 6 5.99993 8.68629 5.99993 12C5.99993 15.3137 8.68622 18 11.9999 18C15.3136 18 17.9999 15.3137 17.9999 12C17.9999 8.68629 15.3136 6 11.9999 6ZM4.99993 12C4.99993 8.13401 8.13394 5 11.9999 5C15.8659 5 18.9999 8.13401 18.9999 12C18.9999 15.866 15.8659 19 11.9999 19C8.13394 19 4.99993 15.866 4.99993 12Z" fill="#A1CFC2"/>
    <path fill-rule="evenodd" clip-rule="evenodd" d="M11.9999 4C7.58165 4 3.99993 7.58172 3.99993 12C3.99993 16.4183 7.58165 20 11.9999 20C16.4182 20 19.9999 16.4183 19.9999 12C19.9999 7.58172 16.4182 4 11.9999 4ZM2.99993 12C2.99993 7.02944 7.02937 3 11.9999 3C16.9705 3 20.9999 7.02944 20.9999 12C20.9999 16.9706 16.9705 21 11.9999 21C7.02937 21 2.99993 16.9706 2.99993 12Z" fill="#A1CFC2"/>
    <path fill-rule="evenodd" clip-rule="evenodd" d="M20.0205 18.6018C20.6063 18.016 21.556 18.016 22.1418 18.6018L28.3519 24.8119C28.9377 25.3977 28.9377 26.3474 28.3519 26.9332L27.4062 27.879C26.8204 28.4647 25.8706 28.4647 25.2848 27.879L19.0748 21.6689C18.489 21.0831 18.489 20.1333 19.0748 19.5476L20.0205 18.6018ZM21.4347 19.3089C21.2395 19.1136 20.9229 19.1136 20.7276 19.3089L19.7819 20.2547C19.5866 20.4499 19.5866 20.7665 19.7819 20.9618L25.9919 27.1719C26.1872 27.3671 26.5038 27.3671 26.6991 27.1719L27.6448 26.2261C27.8401 26.0308 27.8401 25.7143 27.6448 25.519L21.4347 19.3089Z" fill="#A1CFC2"/>
    <path fill-rule="evenodd" clip-rule="evenodd" d="M18.2254 17.027C18.6159 16.6365 19.2491 16.6365 19.6396 17.027L20.609 17.9964C20.9995 18.3869 20.9995 19.0201 20.609 19.4106L19.8836 20.136C19.493 20.5266 18.8599 20.5266 18.4694 20.136L17.4999 19.1666C17.1094 18.7761 17.1094 18.1429 17.4999 17.7524L18.2254 17.027ZM19.9019 18.7035L18.9325 17.7341L18.2071 18.4595L19.1765 19.4289L19.9019 18.7035Z" fill="#A1CFC2"/>
    <path fill-rule="evenodd" clip-rule="evenodd" d="M9.99993 9C9.99993 8.44771 10.4476 8 10.9999 8H12.9999C13.5522 8 13.9999 8.44772 13.9999 9V10H14.9999C15.5522 10 15.9999 10.4477 15.9999 11V13C15.9999 13.5523 15.5522 14 14.9999 14H13.9999V15C13.9999 15.5523 13.5522 16 12.9999 16H10.9999C10.4476 16 9.99993 15.5523 9.99993 15L9.99993 14H8.99993C8.44765 14 7.99993 13.5523 7.99993 13V11C7.99993 10.4477 8.44765 10 8.99993 10L9.99993 10L9.99993 9ZM12.9999 9L10.9999 9L10.9999 10.25C10.9999 10.6642 10.6641 11 10.2499 11H8.99993V13H10.2499C10.6641 13 10.9999 13.3358 10.9999 13.75V15L12.9999 15V13.75C12.9999 13.3358 13.3357 13 13.7499 13H14.9999V11H13.7499C13.3357 11 12.9999 10.6642 12.9999 10.25V9Z" fill="#A1CFC2"/>
</svg>
