<svg xmlns="http://www.w3.org/2000/svg" width="32" height="32" viewBox="0 0 32 32" fill="none">
    <path fill-rule="evenodd" clip-rule="evenodd" d="M26.7834 7.42458C23.5709 4.21207 18.3624 4.21206 15.1499 7.42457L8.69956 13.8749C8.59239 13.9821 8.59239 14.1558 8.69956 14.263C9.98972 15.5531 12.0815 15.5531 13.3716 14.263L14.751 12.8837C15.2891 12.3456 16.1615 12.3456 16.6996 12.8837C17.9897 14.1738 20.0815 14.1738 21.3717 12.8837L21.4041 12.8512C21.6196 12.6358 21.9689 12.6358 22.1844 12.8512C22.3998 13.0667 22.3998 13.416 22.1844 13.6315L22.1519 13.6639C20.4308 15.385 17.6404 15.385 15.9193 13.6639C15.8121 13.5568 15.6384 13.5568 15.5312 13.6639L14.1519 15.0432C13.3331 15.862 12.2724 16.2912 11.1999 16.331C11.1844 16.3516 11.1673 16.3714 11.1485 16.3901L7.31115 20.2271C7.31115 20.2271 7.31114 20.2271 7.31113 20.2271C6.90335 20.6349 6.90336 21.2961 7.31115 21.7039C7.70591 22.0986 8.34135 22.1131 8.75363 21.7366L8.75365 21.7366L13.9726 16.9718C14.079 16.8747 14.2131 16.827 14.3467 16.8276C14.4875 16.8278 14.6282 16.8817 14.7357 16.9891C14.9511 17.2046 14.9511 17.5539 14.7357 17.7694L9.79522 22.7099C9.38742 23.1177 9.38742 23.7788 9.79522 24.1866C10.19 24.5814 10.8254 24.5958 11.2377 24.2194L11.2377 24.2194L16.4567 19.4546C16.6781 19.2524 17.0205 19.2641 17.2276 19.4809C17.4347 19.6976 17.4309 20.0402 17.2188 20.2522L12.2784 25.1926C11.8706 25.6004 11.8706 26.2616 12.2784 26.6694C12.6731 27.0641 13.3086 27.0786 13.7209 26.7022L18.9395 21.9374C19.1609 21.7352 19.5032 21.7469 19.7104 21.9636C19.9175 22.1804 19.9136 22.5229 19.7016 22.7349L14.874 27.5625C14.4039 28.0326 14.4039 28.7949 14.874 29.265C15.3441 29.7351 16.1064 29.7351 16.5765 29.265L26.7834 19.0581C29.9959 15.8456 29.9959 10.6371 26.7834 7.42458ZM8.41726 23.0817C7.75107 23.1969 7.04265 22.9959 6.5309 22.4841C5.69217 21.6454 5.69217 20.2856 6.5309 19.4468L6.53092 19.4468L9.81546 16.1626C9.12118 15.9633 8.46625 15.5902 7.91931 15.0432C7.38121 14.5051 7.38121 13.6327 7.91931 13.0946L14.3696 6.64431C18.0131 3.00088 23.9202 3.00089 27.5637 6.64433C31.2071 10.2878 31.2071 16.1949 27.5637 19.8384L17.3568 30.0453C16.4557 30.9463 14.9948 30.9463 14.0938 30.0453C13.5465 29.4981 13.3316 28.7444 13.4491 28.035C12.7644 28.1751 12.0265 27.978 11.4981 27.4496C10.9852 26.9367 10.786 26.2289 10.9004 25.5646C10.2345 25.6794 9.52648 25.4784 9.01496 24.9669C8.502 24.4539 8.30276 23.746 8.41726 23.0817Z" fill="#007991"/>
    <path fill-rule="evenodd" clip-rule="evenodd" d="M4.02355 6.50635C7.13374 3.39616 12.1764 3.39616 15.2866 6.50635C15.502 6.72181 15.502 7.07115 15.2866 7.28661C15.0711 7.50207 14.7218 7.50207 14.5063 7.28661C11.827 4.60734 7.48307 4.60734 4.8038 7.28661L4.25208 7.83833C1.2681 10.8223 1.2681 15.6603 4.25208 18.6443L6.73484 21.127C6.9503 21.3425 6.9503 21.6918 6.73484 21.9073C6.51938 22.1228 6.17004 22.1228 5.95458 21.9073L3.47182 19.4245C0.0569187 16.0096 0.0569182 10.473 3.47182 7.05808L4.02355 6.50635Z" fill="#007991"/>
</svg>
